<?xml version="1.0" standalone="no"?>
<!DOCTYPE svg PUBLIC "-//W3C//DTD SVG 20010904//EN"
 "http://www.w3.org/TR/2001/REC-SVG-20010904/DTD/svg10.dtd">
<svg version="1.0" xmlns="http://www.w3.org/2000/svg"
 width="180.000000pt" height="180.000000pt" viewBox="0 0 180.000000 180.000000"
 preserveAspectRatio="xMidYMid meet">
<metadata>
Created by potrace 1.11, written by Peter Selinger 2001-2013
</metadata>
<g transform="translate(0.000000,180.000000) scale(0.100000,-0.100000)"
fill="#000000" stroke="none">
<path d="M183 880 l0 -430 303 0 302 0 1 80 1 80 -33 0 c-17 1 -112 1 -209 1
l-177 1 1 346 1 347 -95 3 -95 3 0 -431z"/>
<path d="M935 879 l0 -431 240 4 c257 5 274 8 355 60 59 39 107 103 138 186
22 58 25 83 25 187 0 100 -4 130 -23 180 -45 118 -114 186 -226 224 -52 17
-87 20 -284 21 l-225 1 0 -432z m403 260 c112 -23 167 -113 166 -269 0 -70 -5
-95 -26 -141 -42 -92 -96 -117 -255 -118 l-93 0 0 269 0 270 80 0 c43 0 101
-5 128 -11z"/>
</g>
</svg>
