<?xml version="1.0" encoding="utf-8"?>
<!-- Generator: Adobe Illustrator 25.1.0, SVG Export Plug-In . SVG Version: 6.00 Build 0)  -->
<!DOCTYPE svg PUBLIC "-//W3C//DTD SVG 1.1//EN" "http://www.w3.org/Graphics/SVG/1.1/DTD/svg11.dtd" [
	<!ENTITY ns_extend "http://ns.adobe.com/Extensibility/1.0/">
	<!ENTITY ns_ai "http://ns.adobe.com/AdobeIllustrator/10.0/">
	<!ENTITY ns_graphs "http://ns.adobe.com/Graphs/1.0/">
	<!ENTITY ns_vars "http://ns.adobe.com/Variables/1.0/">
	<!ENTITY ns_imrep "http://ns.adobe.com/ImageReplacement/1.0/">
	<!ENTITY ns_sfw "http://ns.adobe.com/SaveForWeb/1.0/">
	<!ENTITY ns_custom "http://ns.adobe.com/GenericCustomNamespace/1.0/">
	<!ENTITY ns_adobe_xpath "http://ns.adobe.com/XPath/1.0/">
]>
<svg version="1.1" id="Layer_1" xmlns:x="&ns_extend;" xmlns:i="&ns_ai;" xmlns:graph="&ns_graphs;"
	 xmlns="http://www.w3.org/2000/svg" xmlns:xlink="http://www.w3.org/1999/xlink" x="0px" y="0px" viewBox="0 0 128.3 55.6"
	 style="enable-background:new 0 0 128.3 55.6;" xml:space="preserve">
<style type="text/css">
	.st0{fill:none;}
</style>
<metadata>
	<sfw  xmlns="&ns_sfw;">
		<slices></slices>
		<sliceSourceBounds  bottomLeftOrigin="true" height="54.5" width="98.7" x="531.6" y="-447.8"></sliceSourceBounds>
	</sfw>
</metadata>
<g>
	<path class="st0" d="M113,12.5c-7.9,0-14.8,6.7-14.8,14.4c0,7.6,6.9,14.4,14.8,14.4c7.9,0,14.8-6.7,14.8-14.4
		C127.8,19.2,120.9,12.5,113,12.5z M113,40.5c-5.3,0-7.4-4-7.4-13.6c0-9.7,2.2-13.6,7.4-13.6c5.3,0,7.4,4,7.4,13.6
		C120.4,36.6,118.3,40.5,113,40.5z"/>
	<path class="st0" d="M93.8,35.1V0.5l-0.4,0.1C90.4,1,85.7,1.3,82.1,1.3h-0.3v0.6c4.9,0.3,5.4,0.8,5.4,5.1v28.1
		c0,3.7-0.8,4.4-5.4,4.8v0.6h17.4V40C94.6,39.5,93.8,38.8,93.8,35.1z"/>
	<path class="st0" d="M84.2,13.3H72.3v0.6c3.1,0.5,4.2,1.3,4.2,3.6c0,1.3-0.8,4-2,7.2l-4.3,10.7l-6.5-16.5l-0.6-1.5
		c-0.2-0.5-0.3-1-0.3-1.4c0-1.3,1.3-1.9,4.5-2.2v-0.6H42.7v-12h-1.9c-0.4,4.7-1.1,7-2.6,8.9c-1.5,2-4.1,3-7.5,3.1v0.9h5.4v15.8
		c0,5.9,0.1,6.5,1,8.1c1.2,1.9,3.1,3.1,8.5,3.1c2.7,0,6.7-0.7,7.1-11.1c-0.3,0-0.4,0-0.9,0c-0.3,6.6-2.4,10.1-5.5,10.1
		c-3,0-3.7-2-3.7-7.5V14.2l8.6,0c3.4,0,4,0.8,5.6,4.8c0,0,9.5,24.3,9.9,25.3c-2,5-4,9.2-7.2,9.2c-0.8,0-1.5-0.7-1.5-1.2
		c0-0.2,0.2-0.5,0.5-0.8c0.6-0.6,0.9-1.2,0.9-2.1c0-1.9-1.5-3.3-3.4-3.3c-2.2,0-3.8,1.7-3.8,4c0,2.8,2.4,4.9,5.6,4.9
		c5.1,0,7.4-4.3,9.4-9.2L76,23.5c1.1-2.8,1.8-4.3,2.7-5.8c1.4-2.2,3.1-3.4,5.6-3.9V13.3z"/>
	<path class="st0" d="M26.9,20.3c-1.9-1.4-3.3-1.9-9.2-3.6l-4.2-1.2c-6.1-1.7-8-3.3-8-6.6c0-4,3.7-7,8.4-7c3.5,0,6.6,1.2,9,4.1
		c1.8,2.2,2.6,3.2,4.1,7.7l0.2,0.7h0.6V1.3c0,0-0.4,0-0.7,0c-0.8,2.2-1.3,3.3-2.4,3.3c-0.4,0-0.7-0.2-1.5-0.6c-3.3-2.1-6.2-3-9.4-3
		C6.8,1,0.6,6.3,0.6,12.4c0,2.8,1.5,5.8,3.7,7.5c1.8,1.3,4,2.3,8.8,3.5l4.7,1.2c5.9,1.6,8.2,3.7,8.2,7.3c0,4.9-4.2,8.6-9.8,8.6
		c-7.5,0-12.1-5.4-15.1-17.3H0.5v17.8h0.6L1.5,40L2,38.7c0.5-1.2,1-1.8,1.7-1.8c0.4,0,0.8,0.2,1.5,0.6l1.3,0.8c3.2,2,6.5,3,9.9,3
		c7.8,0,14.4-5.9,14.4-12.9C30.8,25.2,29.3,22.1,26.9,20.3z"/>
</g>
</svg>
